<?xml version="1.0" encoding="UTF-8" standalone="no"?>
<!-- Created with Inkscape (http://www.inkscape.org/) -->

<svg
   width="87mm"
   height="24mm"
   viewBox="0 0 87 24"
   version="1.1"
   id="svg5"
   sodipodi:docname="logo.svg"
   inkscape:version="1.1.2 (b8e25be833, 2022-02-05)"
   xmlns:inkscape="http://www.inkscape.org/namespaces/inkscape"
   xmlns:sodipodi="http://sodipodi.sourceforge.net/DTD/sodipodi-0.dtd"
   xmlns="http://www.w3.org/2000/svg"
   xmlns:svg="http://www.w3.org/2000/svg">
  <sodipodi:namedview
     id="namedview10"
     pagecolor="#ffffff"
     bordercolor="#666666"
     borderopacity="1.0"
     inkscape:pageshadow="2"
     inkscape:pageopacity="0.0"
     inkscape:pagecheckerboard="0"
     inkscape:document-units="mm"
     showgrid="false"
     inkscape:zoom="2.7052591"
     inkscape:cx="98.142169"
     inkscape:cy="30.496154"
     inkscape:window-width="1920"
     inkscape:window-height="991"
     inkscape:window-x="-9"
     inkscape:window-y="-9"
     inkscape:window-maximized="1"
     inkscape:current-layer="svg5" />
  <defs
     id="defs2">
    <style
       id="style824">.cls-1{fill:#1f1a17;fill-rule:evenodd;}</style>
  </defs>
  <g
     id="layer1">
    <text
       xml:space="preserve"
       style="font-style:normal;font-weight:normal;font-size:22.5055px;line-height:1.25;font-family:sans-serif;letter-spacing:1.85208px;word-spacing:0px;fill:#161026;fill-opacity:1;stroke:none;stroke-width:0.117216"
       x="1.1899953"
       y="17.637363"
       id="text1717"><tspan
         id="tspan1715"
         style="font-style:normal;font-variant:normal;font-weight:bold;font-stretch:normal;font-size:22.5055px;font-family:'Comic Sans MS';-inkscape-font-specification:'Comic Sans MS Bold';fill:#161026;fill-opacity:1;stroke-width:0.117216"
         x="1.1899953"
         y="17.637363">Bl gify</tspan></text>
  </g>
  <g
     id="layer2"
     transform="matrix(1.0833333,0,0,1.0833333,-4.4505308,-1.3596895)">
    <path
       id="path828"
       style="fill:#161026;fill-opacity:1;stroke-width:0.00826304"
       class="cls-1"
       d="m 31.33432,6.5 c -1.272084,0 -2.544159,0.4853184 -3.514695,1.4559217 -1.81266,1.8122406 -1.932393,4.6765963 -0.36036,6.6286803 L 30.445681,18.5 v -2.967321 h 1.777256 v 0.828523 A 4.9465814,4.9465814 0 0 0 34.84907,14.98532 c 1.941067,-1.941159 1.941151,-5.0882787 0,-7.0293983 C 33.878493,6.9853184 32.606392,6.5 31.334308,6.5 Z m 0.245201,1.6755602 a 0.03999309,0.03999309 0 0 1 0.03999,0.039984 c 0,0 0.0882,0.3724033 0.490452,1.5292031 0.402243,1.1568377 1.33356,2.3857957 1.33356,2.3857957 0,0 -0.14872,0.182002 -0.606164,1.052564 -0.457441,0.870676 -0.614413,1.545639 -0.614413,1.545639 H 30.44569 c 0,0 -0.15696,-0.674881 -0.614407,-1.545639 -0.457445,-0.870764 -0.606165,-1.052564 -0.606165,-1.052564 0,0 0.931233,-1.22868 1.33356,-2.3860787 0.402328,-1.1574 0.490512,-1.5292801 0.490512,-1.5292801 a 0.03999309,0.03999309 0 0 1 0.04,-0.039984 0.03999309,0.03999309 0 0 1 0.03999,0.039984 v 3.2246828 a 0.826799,0.826799 0 0 0 0,1.601798 0.83258308,0.83258308 0 0 0 0.410516,0 0.826799,0.826799 0 0 0 0,-1.601798 V 8.2155442 a 0.03999309,0.03999309 0 0 1 0.03999,-0.039984 z m -1.27068,6.7306798 h 2.051032 a 0.2243413,0.2243413 0 0 1 0.223719,0.223599 0.22442394,0.22442394 0 0 1 -0.223719,0.223603 h -2.051032 a 0.22442394,0.22442394 0 0 1 -0.2238,-0.223603 0.2243413,0.2243413 0 0 1 0.2238,-0.223599 z" />
  </g>
</svg>
